<?xml version="1.0" encoding="UTF-8"?>
<svg width="16px" height="14px" viewBox="0 0 16 14" version="1.1" xmlns="http://www.w3.org/2000/svg" xmlns:xlink="http://www.w3.org/1999/xlink">
    <!-- Generator: Sketch 54.1 (76490) - https://sketchapp.com -->
    <title>close</title>
    <desc>Created with Sketch.</desc>
    <g id="Page-1" stroke="none" stroke-width="1" fill="none" fill-rule="evenodd">
        <g id="gifOS_estados_theme1" transform="translate(-696.000000, -1154.000000)">
            <g id="sugeridos" transform="translate(100.000000, 1098.000000)">
                <g id="suguerido_hover" transform="translate(332.000000, 48.000000)">
                    <g id="close" transform="translate(264.000000, 8.000000)">
                        <rect id="main" stroke="#000000" stroke-width="2" fill="#B4B4B4" x="1" y="1" width="14" height="12"></rect>
                        <rect id="main" stroke="#6D6D6D" x="1.5" y="1.5" width="13" height="11"></rect>
                        <rect id="white1" fill="#FFFFFF" x="0" y="0" width="15" height="1"></rect>
                        <rect id="white2" fill="#FFFFFF" x="0" y="0" width="1" height="13"></rect>
                        <rect id="white1" fill="#D8D8D8" x="1" y="1" width="13" height="1"></rect>
                        <rect id="white2" fill="#D8D8D8" x="1" y="1" width="1" height="11"></rect>
                        <path d="M4,3 L6,3 L6,4 L4,4 L4,3 Z M5,4 L7,4 L7,5 L5,5 L5,4 Z M6,5 L8,5 L8,6 L6,6 L6,5 Z M7,6 L9,6 L9,7 L7,7 L7,6 Z M8,5 L10,5 L10,6 L8,6 L8,5 Z M9,4 L11,4 L11,5 L9,5 L9,4 Z M5,8 L7,8 L7,9 L5,9 L5,8 Z M9,8 L11,8 L11,9 L9,9 L9,8 Z M10,9 L12,9 L12,10 L10,10 L10,9 Z M4,9 L6,9 L6,10 L4,10 L4,9 Z M10,3 L12,3 L12,4 L10,4 L10,3 Z M6,7 L8,7 L8,8 L6,8 L6,7 Z M8,7 L10,7 L10,8 L8,8 L8,7 Z" id="Rectangle" fill="#000000"></path>
                    </g>
                </g>
            </g>
        </g>
    </g>
</svg>