<?xml version="1.0" encoding="UTF-8"?>
<svg width="16px" height="16px" viewBox="0 0 16 16" version="1.1" xmlns="http://www.w3.org/2000/svg" xmlns:xlink="http://www.w3.org/1999/xlink">
    <!-- Generator: Sketch 54.1 (76490) - https://sketchapp.com -->
    <title>Combined Shape</title>
    <desc>Created with Sketch.</desc>
    <g id="Page-1" stroke="none" stroke-width="1" fill="none" fill-rule="evenodd">
        <g id="gifOS_estados_theme2" transform="translate(-1190.000000, -468.000000)" fill="#8F8F8F" fill-rule="nonzero">
            <g id="busqueda" transform="translate(100.000000, 377.000000)">
                <g id="busqueda_inactive" transform="translate(0.000000, 36.000000)">
                    <g id="boton-buscar_inactivo" transform="translate(1080.000000, 45.000000)">
                        <g id="noun_Pixel-Search_644045" transform="translate(10.000000, 10.000000)">
                            <path d="M7.11111111,1.77777778 C5.92592593,1.77777778 4.74074074,1.77777778 3.55555556,1.77777778 L3.55555556,-3.77475828e-15 C5.33333333,-3.77475828e-15 7.11111111,-3.77475828e-15 8.88888889,-3.77475828e-15 L8.88888889,1.77777778 L7.11111111,1.77777778 Z M10.6666667,3.55555556 L8.88888889,3.55555556 L8.88888889,1.77777778 L10.6666667,1.77777778 L10.6666667,3.55555556 Z M10.6666667,10.6666667 L12.4444444,10.6666667 L12.4444444,12.4444444 L10.6666667,12.4444444 L10.6666667,10.6666667 Z M8.88888889,8.88888889 L10.6666667,8.88888889 L10.6666667,10.6666667 L8.88888889,10.6666667 L8.88888889,8.88888889 Z M10.6666667,7.11111111 C10.6666667,5.92592593 10.6666667,4.74074074 10.6666667,3.55555556 L12.4444444,3.55555556 C12.4444444,5.33333333 12.4444444,7.11111111 12.4444444,8.88888889 L10.6666667,8.88888889 L10.6666667,7.11111111 Z M3.55555556,1.77777778 L3.55555556,3.55555556 L1.77777778,3.55555556 L1.77777778,1.77777778 L3.55555556,1.77777778 Z M12.4444444,12.4444444 L14.2222222,12.4444444 L14.2222222,14.2222222 L12.4444444,14.2222222 L12.4444444,12.4444444 Z M14.2222222,14.2222222 L16,14.2222222 L16,16 L14.2222222,16 L14.2222222,14.2222222 Z M5.33333333,10.6666667 C6.51851852,10.6666667 7.7037037,10.6666667 8.88888889,10.6666667 L8.88888889,12.4444444 C7.11111111,12.4444444 5.33333333,12.4444444 3.55555556,12.4444444 L3.55555556,10.6666667 L5.33333333,10.6666667 Z M1.77777778,5.33333333 C1.77777778,6.51851852 1.77777778,7.7037037 1.77777778,8.88888889 L2.52020627e-14,8.88888889 C2.52020627e-14,7.11111111 2.52020627e-14,5.33333333 2.52020627e-14,3.55555556 L1.77777778,3.55555556 L1.77777778,5.33333333 Z M1.77777778,8.88888889 L3.55555556,8.88888889 L3.55555556,10.6666667 L1.77777778,10.6666667 L1.77777778,8.88888889 Z" id="Combined-Shape"></path>
                        </g>
                    </g>
                </g>
            </g>
        </g>
    </g>
</svg>